<svg id="adobe-xd" xmlns="http://www.w3.org/2000/svg" width="87.795" height="85.6" viewBox="0 0 87.795 85.6">
  <path id="Path_801" data-name="Path 801" d="M72.248,85.6h-56.7A15.533,15.533,0,0,1,0,70.053V15.547A15.533,15.533,0,0,1,15.547,0h56.7A15.533,15.533,0,0,1,87.795,15.547V70.053A15.533,15.533,0,0,1,72.248,85.6Z" fill="#ff26be"/>
  <path id="Path_802" data-name="Path 802" d="M171.4,182.481h-53.92A13.3,13.3,0,0,1,104.2,169.2V117.478A13.3,13.3,0,0,1,117.478,104.2h53.885a13.277,13.277,0,0,1,13.278,13.278v51.69A13.257,13.257,0,0,1,171.4,182.481Z" transform="translate(-100.541 -100.541)" fill="#2e001f"/>
  <path id="Path_803" data-name="Path 803" d="M485.014,612.038l10.244,19.68c.183.292.074.586-.221.586H488.67a.717.717,0,0,1-.769-.474c-2.342-4.829-4.72-9.657-7.171-14.851h-.074c-2.195,4.9-4.611,10.061-6.95,14.89a.706.706,0,0,1-.66.4h-6.03c-.365,0-.4-.292-.218-.513l10.023-19.1-9.693-19.315a.3.3,0,0,1,.218-.513h6.293c.365,0,.513.074.657.4,2.3,4.829,4.646,9.8,6.841,14.669h.074c2.121-4.829,4.463-9.84,6.732-14.634.183-.292.292-.474.66-.474h5.889c.292,0,.4.221.221.513ZM497.053,618c0-8.523,5.672-15.181,14.669-15.181a16.129,16.129,0,0,1,1.9.074V593.2a.365.365,0,0,1,.365-.365h5.78c.291,0,.365.109.365.291V626.71a26.135,26.135,0,0,0,.183,3.586c0,.221-.074.291-.291.4a21.777,21.777,0,0,1-9.366,2.121c-7.94.032-13.612-4.867-13.608-14.82Zm16.569-9.362a5.5,5.5,0,0,0-2.121-.365c-4.611,0-7.828,3.547-7.828,9.44,0,6.732,3.294,9.44,7.427,9.44a6.858,6.858,0,0,0,2.525-.4v-18.11Z" transform="translate(-450.3 -571.982)" fill="#ffd9f2"/>
</svg>
