<svg xmlns="http://www.w3.org/2000/svg" width="85" height="85" viewBox="0 0 85 85">
  <g id="dreamweaver" transform="translate(-14198 -55)">
    <g id="XMLID_25_" transform="translate(14130.979 -12.5)">
      <rect id="XMLID_27_" width="85" height="85" transform="translate(67.021 67.5)" fill="#35fa00"/>
      <rect id="XMLID_31_" width="77.073" height="77.073" transform="translate(71.244 71.227)" fill="#072600"/>
      <path id="XMLID_34_" d="M116.923,155.5c0-.232.046-.347.347-.417,2.917-.116,6.529-.185,9.678-.185,10.951,0,16.461,7.5,16.461,18.661,0,16.577-10.858,19.54-17.433,19.54-3.45,0-5.95-.069-8.728-.116-.232,0-.347-.116-.347-.532V155.5Zm5.857,32.042c.88.069,2.037.069,3.38.069,6.784,0,11.229-4.237,11.229-13.845,0-8.775-3.82-13.266-10.465-13.266-2.176,0-3.727.069-4.167.116v26.926Z" transform="translate(-37.946 -67.165)" fill="#35fa00"/>
      <path id="XMLID_35_" d="M264.787,227.069c-.324,0-.417-.116-.533-.463-2.662-12.965-3.565-17.85-4.052-20.582h-.046c-.486,2.917-1.621,8.08-4.607,20.582-.093.347-.232.463-.532.463h-5.279c-.417,0-.533-.185-.625-.532l-6.228-27.273c-.093-.3,0-.463.278-.463h5.093c.278,0,.37.069.417.347,3.241,15.049,3.913,19.309,4.237,21.392H253c.185-1,1.389-7.038,4.515-21.277.046-.347.093-.463.417-.463h5.093c.232,0,.324.116.37.347,3.1,14.817,3.843,19.471,4.19,21.578h.093c.579-3.427,1.482-9.006,4.422-21.508.046-.3.185-.417.37-.417h4.7c.185,0,.324.116.278.417l-6.9,27.389c-.093.347-.139.463-.533.463h-5.232Z" transform="translate(-134.736 -100.901)" fill="#35fa00"/>
    </g>
  </g>
</svg>
