<svg xmlns="http://www.w3.org/2000/svg" xmlns:xlink="http://www.w3.org/1999/xlink" width="86.563" height="84.398" viewBox="0 0 86.563 84.398">
  <defs>
    <radialGradient id="radial-gradient" cx="0.329" cy="0.224" r="0.781" gradientTransform="translate(-0.01 0.01) scale(0.973 0.968)" gradientUnits="objectBoundingBox">
      <stop offset="0" stop-color="#34364e" stop-opacity="0.98"/>
      <stop offset="1" stop-color="#0c0824"/>
    </radialGradient>
  </defs>
  <g id="photoshop-cc" transform="translate(0 -130.746)">
    <path id="Path_806" data-name="Path 806" d="M24.8,155.549h79.349v77.185H24.8Z" transform="translate(-21.196 -21.196)" fill="url(#radial-gradient)"/>
    <path id="Path_807" data-name="Path 807" d="M3.607,134.353H82.956v77.185H3.607ZM0,215.144H86.562v-84.4H0Zm58.357-49.773c-2.849,0-3.823,1.443-3.823,2.633,0,1.3.649,2.2,4.472,4.184,5.663,2.741,7.43,5.374,7.43,9.233,0,5.771-4.4,8.873-10.351,8.873a15.691,15.691,0,0,1-7.394-1.551c-.252-.108-.289-.288-.289-.577v-5.3c0-.361.18-.469.433-.289a13.387,13.387,0,0,0,7.249,2.128c2.849,0,4.04-1.19,4.04-2.813,0-1.3-.83-2.453-4.473-4.328-5.122-2.453-7.249-4.941-7.249-9.089,0-4.653,3.643-8.512,9.955-8.512a16.585,16.585,0,0,1,6.456,1.01.8.8,0,0,1,.361.721v4.941c0,.288-.18.469-.541.361a12.184,12.184,0,0,0-6.276-1.623Zm-31.018,4.292c.83.072,1.479.072,2.922.072,4.22,0,8.187-1.479,8.187-7.213,0-4.581-2.849-6.889-7.646-6.889-1.443,0-2.813.072-3.463.108Zm-6.42-19.152c0-.252.505-.433.793-.433,2.308-.108,5.735-.18,9.306-.18,9.991,0,13.886,5.482,13.886,12.479,0,9.161-6.636,13.093-14.788,13.093-1.371,0-1.839-.072-2.813-.072v13.85c0,.289-.108.433-.433.433H21.352c-.289,0-.433-.108-.433-.433V150.511Z" fill="#31c5f0"/>
  </g>
</svg>
