<svg xmlns="http://www.w3.org/2000/svg" width="105.086" height="84" viewBox="0 0 105.086 84">
  <g id="zeplin" transform="translate(0 0.1)">
    <path id="Path_816" data-name="Path 816" d="M244.19,1326.4l-5.5,2.008-.293,16.352,19.029-6.951c-6.532-2.188-11.3-6.043-13.239-11.409" transform="translate(-227.991 -1268.58)" fill="#fdbd39"/>
    <path id="Path_817" data-name="Path 817" d="M19.077,930.3,0,937.269l10.7,12.339,5.5-2.008c-1.939-5.349-.742-11.388,2.877-17.3" transform="translate(0 -889.775)" fill="#f69833"/>
    <path id="Path_818" data-name="Path 818" d="M385.768,285.826c-24.29,8.872-39.952,27.185-34.975,40.9l87.961-32.132c-4.978-13.71-28.7-17.636-52.986-8.763" transform="translate(-334.594 -268.901)" fill="#fecf33"/>
    <path id="Path_819" data-name="Path 819" d="M423.886,631.5c24.29-8.872,39.978-27.1,34.975-40.9L370.9,622.728c5,13.8,28.7,17.64,52.986,8.768" transform="translate(-354.705 -564.908)" fill="#ee6723"/>
    <path id="Path_820" data-name="Path 820" d="M458.956,590.5,371,622.632c1.72,4.751,8.292,7.091,17.5,7.091,8.986,0,20.487-2.223,32.477-6.6,24.29-8.872,41.376-23.242,37.974-32.621" transform="translate(-354.801 -564.812)" fill="#f69833"/>
    <path id="Path_821" data-name="Path 821" d="M432,428.2c-8.982,0-20.487,2.222-32.477,6.6-24.29,8.872-41.376,23.238-37.974,32.617l87.961-32.132c-1.725-4.751-8.292-7.087-17.509-7.087" transform="translate(-345.351 -409.599)" fill="#fdbd39"/>
    <g id="Group_237" data-name="Group 237" transform="translate(34.016 -0.1)">
      <path id="Path_822" data-name="Path 822" d="M826.813,229.562c-2.589,0-6.405-2.336-11.348-6.947a146.764,146.764,0,0,1-18.858-22.5A146.908,146.908,0,0,1,782,174.637c-3.384-8.043-3.869-12.986-1.437-14.7a3.244,3.244,0,0,1,1.912-.563c1.978,0,5.838,1.471,12.968,8.493l.157.153-.022.218c-.048.507-.092,1.013-.131,1.515l-.079.991-.7-.7c-7.685-7.742-11.064-8.576-12.165-8.576a1.271,1.271,0,0,0-.742.188c-1.057.742-1.127,4.375,2.157,12.169a144.868,144.868,0,0,0,14.4,25.094,144.262,144.262,0,0,0,18.575,22.164c6.192,5.777,8.982,6.4,9.894,6.4a1.293,1.293,0,0,0,.76-.2c1.113-.782,1.113-4.672-2.546-13.064l-.17-.384.367-.2c.367-.2.725-.4,1.057-.589l.441-.249.205.463c2.594,5.947,5.021,13.505,1.838,15.741a3.261,3.261,0,0,1-1.921.563Zm0-.917v0Z" transform="translate(-779.037 -152.412)" fill="#ee6723"/>
      <path id="Path_823" data-name="Path 823" d="M1146.052,66.334l-.035.454c-.616,7.6-2.231,16.732-6.449,17.1-.087.009-.175.009-.257.009-2.865,0-5.576-4.1-8.052-12.2a146.765,146.765,0,0,1-5.126-28.945,147.114,147.114,0,0,1,.039-29.4C1127.246,4.7,1129.29.175,1132.25-.087c.087-.009.179-.013.266-.013,2.078,0,5.209,2.353,8.414,13.313l-2.091.4a43.083,43.083,0,0,0-3.393-8.689c-1.07-1.891-2.113-2.934-2.93-2.934a.558.558,0,0,0-.083,0c-1.284.114-3.152,3.222-4.192,11.623a145,145,0,0,0-.035,28.958,144.959,144.959,0,0,0,5.043,28.512,38.869,38.869,0,0,0,3.275,8.025c1.022,1.738,2.013,2.694,2.786,2.694a.475.475,0,0,0,.078,0c1.227-.1,3.541-3.345,4.515-14.737Z" transform="translate(-1110.298 0.1)" fill="#ee6723"/>
    </g>
  </g>
</svg>
